<?xml version="1.0" encoding="UTF-8"?>
<svg version="1.1" viewBox="0 0 2048 1462" width="1280" height="1280" xmlns="http://www.w3.org/2000/svg">
<path transform="translate(0)" d="m0 0h2048v1462h-2048z" fill="#FDFDFD"/>
<path transform="translate(895,43)" d="m0 0h210l3 5 68 1 3 5 39 1 2 5 34 1 1 6h27l2 1 2 5h21l2 5 22 1 1 5 10 1h6l2 5 15 1 2 2v3l9 1h6l3 3 1 2 9 1h6l3 5 7 1h8l4 6h8l2 5 9 1h6l3 5 7 1h8l3 5 6 1 4 1 2 4 6 2v-2h3l2 5 7 2 3 1 5 5 5-1 4 5 4 2h4v2h3v3h2v2l7-2 6 8 6 5 4-1 5 5 7 3v-2l2 1 5 6h7l2 4h2l6 7 7 1 2 4 4 2 5 6 5-1v2l4 1 3 4h7l10 10v2l5 2 2 4 7-1 4 6 5 4 15 15h6l9 10 31 31 6 7h8l1 1v8l30 30-1 7 4 2 37 37 2 1v9l5 3 2 3 4 2v9l2 2 4 1 2 7 4-1v8l18 18v8l5 2 4 6 3 3v7l5 2 1 2v7l5 4 5 5 2 1v15l5 3 3 4 3 1v11h6v12l6 2 1 9 4 1 2 11 5 3v13l4 4 3 1-1 4 1 6 4 1 1 5 1 4 4 4 3 10 4 1v15l1 2 4 1 1 11 5 1 1 4v19l5 1 1 16 5 3v15l4 1v2h2l1 15 5 2v23l6 1v23l6 1v29l6 1v34l6 2v29l5 1v60h-307l-1 4-3 2-2-1-1-5h-16l-2 5-5-1-2-4h-6l-5 5h-4l-3-5h-26l-2 5-9 1-2-2v-4h-41l-1 4-4 2-2-3v-3h-17l-1 5-3 1-2-1v-5h-70l-2 5-3 1-2-2v-4h-207l-1 5h-6v-15l10-9 5-6h7l5-6 5-5 5-2-1-6 1-5h9l5-6 3-2 1-9 4-1 1-5v-7l4 2 2-5 4-4h2l2-5 4-2v-8l4-2 2-8-1-3 2-7 4-2 1-9 5-1v-20l1-3 6-2-1-7v-8l6-3v-63l6-3 1-22-7-1v-45l1-14-7-1v-21l1-26-6-1v-29l-6-1-1-12h-5l-1-8 1-4-1-4-5-2-1-10-6-3 1-10-5-1-1-2v-15l-6-2-1-28-4-1-1-1v-17l-16 1-3 5-3 1h-6l-4 6h-8l-2 5-5 3-2 4-7-1-4 6-5 3-2 4h-8l-3 5-8 1-24 24-4 5-9 2-5 5-11 12-20 20-3 4-7-1-3 5-5 5-6 5v7l-6 5-7 8-5 4-3 4h-8l-2 4-34 34-1 9-6 1h-8l-3-1-2-5-4-2-1-5 2-5 4-2v-9l6-4 12-12v-7l2-3 7 1 11-12 4-4v-7l10-9 12-12 5 1 8-9 8-7 9-10 10-10h7l9-10 5-6v-7l10-2 7-7 3-4h7l5-6 10-10 5-4v-13l-2-2-3-1-1-5 1-6-6-1-1-4v-5l-5-4-2-5h-4l-1-4v-6l-4-2-3-5-5-3 1-8-4-2-4-5-4-3v-10l-3 1-7-8-8-7-5-5-1-4-1-5-6-5-7-9-7 1-3-4v-2h-3v-2h-2l-1-5-9 1-3-5v-2l-5-1v-10l-6-1v-30h-17l-2-5-22-1-1-5-46-1-1 5-1 1-9 1-2 5-5 1h-23l-3 6-9-1-1 4-4 4h-2v-3l-5 3-4 5-4-1-8 7-8 8-7 8-8 7-6 7-3 3 1 7 5 3 4 4h11l2 1 1 5h16l3-1 4 3v4h22l2 3v3h35l1 5 27 1 3 5 22 1 2 5 5 3v8l-6 5-2 4h-17l-52-1-1-6h-40l-2-5h-11l-5-2-2-4-4-1-4 1-2-2v-4h-21l-2-1-3-5-6-1-5 5-4 3-1 4 1 10-6 4-1 4v6l-4 1-1 7-1 3-4 1-2 5-5 3v9l-1 1h-5v11h-2l-1 2-3-1v10l-1 2-4 1-1 2v12l7 8 8 1 6 7 2 1v2l4 2 11 12 5-1 4 3v7l65 65v2l4 2 2 2v7l24 24v2l6 3v8l10 9 18 18 2 5-1 3 5 4 7 8 10 10 2 1 1 8 6 5 7 8 4 4v7l10 9 14 14v6l1 3 4 2 8 9 5 3v9l11 2 1 10 5 2v36l-4-1-2-1v-2h-2l-4-5-1-3 1-4-10-9-7-6-1-2v-12l-2-3h-7l-3-3v-2l-4-2-9-10-5-4 1-6-43-43-7-8-11-11-4-2-5 1-2-2 1-7-24-24-3-4-8 1-1-2v-11l-10 1-2-1v-12l-7 2-36-36-7-8-7-6-4 1-8-7-5-5v-2h-2l-7-8-36-36-6-7-30-30v-2l-8 1-2 2v9l-4-1v2h-2v10l-5 2-2 11-5 2v9l-6 2v10l-6 2v10l-5 1v16l-4 3-3-1 1 3-1 9-6 1 1 22-6 2v15l-2 2-4 1v40l-4 2h-3v89l7 1v17l5 1 1 28 6 3v21l6 4 1 7 1 3 3 1 2 8 4 4 1 7v7l1 2 4 2 1 9 6 3-1 3 2 6 10 10v13l8 7 10 10v6l11 11 7 8-1 8-50 1h-664l-26-1v-53l6-1v-47l6-2 1-34 5-1v-23l1-1h5v-28l6-2v-17l6-1v-23l5-2 1-7-1-6 4-4 2-1v-14l1-2 5-2 1-3-1-12 6-3 1-22 9-7 2-2v-12l2-4h4v-11l6-1v-16l5-3 7-8v-13l5-3 1-10 4-1 3-5 4-3v-8l6-3v-14l7-6 2-3 3-1 1-10 4-1 2-10 5-2v-9l1-3h10l1-9 2-3h3l2-10 5-5 2-3 3-1 1-10 5-2 1-3h2l1-2 2-1 1-4-1-5 5-3 25-25 1-10h7l4-1v-8l8-8 4-3v-7l39-39h7l7-8 28-28 7-8 8-8 1-2h8l1-4 6-2 1-4 6-5 1-3h10l1-5h2v-2l7 1 4-5 7-7h7l3-5 4-2 3-5h8l4-6 4-4h2v-2h9l1-5 4-1h7l1-5 6-1 4 1 2-6 3-1h7l1-4 6-5 3-4 7 1 3-5 6-2 3 1 3-6h14l5-7 7 1 4-6 9 1 1-6 7-1 4-1 2-5h13l9-1 2-5h8l3-5 4-2 2-5h16l2-6h29l1-6h22l1-5 1-1h22l1-6h29v-6h28l2-5 1-1 51-1 1-4 2-1h56z" fill="#01407D"/>
<path transform="translate(16,1447)" d="m0 0h2025l7 1v14h-2048v-14z" fill="#010509"/>
<path transform="translate(0)" d="m0 0h2048v13h-2048z" fill="#010101"/>
<path transform="translate(1403,1039)" d="m0 0h40l4 6 12 12h13l4 6 4 2 1 4 5 2 1 9 5 3v15l6 3v21l-6 3v10l-5 2-2 4-5 1v10l-2 2h-8l-5 6-5 5-6 7-57-1-4-6-11-11h-7l-4-6-4-2v-9l-6-2v-59l5-2 1-10 5-2 2-5 3-1 6 1 4-6 7-7 5 1 3-1z" fill="#010306"/>
<path transform="translate(1410,1249)" d="m0 0 4 1 4 5 3 2-1 131h-5v11l-5 1-2-1v-11h-22l-2 5-4 1h-6l-1 5-7 1h-20l-6-6v-2l-4-2-1-2-7 1-5-7-5-5v-2l-3 1-2-6v-5l-5-2-1-10-5-2-1-8 1-9 6-3v-14l12-11 14-15h9l1-6h33l9 11 17 1-1-27v-13l7-6z" fill="#010407"/>
<path transform="translate(286,1279)" d="m0 0h19l3 2 1 3 14 1 4 5 9 2 2-6 5-5 1-2 5 1 2 4 10 1v90l-6 1v12h-11l-1-1v-11l-10-1-2 5-5 5-2 3h-58l-1-12h-7l-4-1v-10l-4-2-7-6-1-2v-44l8-7 17-17 1-2h14l2-5z" fill="#010508"/>
<path transform="translate(889,1285)" d="m0 0h39l3 6h13l3 3 1 2 5 2v-13h10l5 6 3 1v77l-6 1v16l-2 2h-8l-2-1-2-4-3-1-6 1-3 5h-14l-3 5-4 4-1 2-9 1h-6l-4-5-2-1v-2h-2l-1-4h-15l-11-12-10-10 1-12-6-3v-35l8-6 3-2 1-10 1-1 9-1 4-5h6l3-2z" fill="#01050A"/>
<path transform="translate(379,1033)" d="m0 0h28l2 6h27l9 10 1 3 7-1 3 2v9l5 2 1 1v9l-5 3-2 5-4-1-4-5-2-1-2 5-3 2-7-7-4 2-11-12-6-7h-26l-2 5-9 1-5 6-3 3v8l-6 1v41l6 1v12l9-1 9 9 1 2 27 1 1-11 1-1h11l-2-5-6-6-3 1-3 5h-21v-12l-6-1-1-2v-7l6-5 1-4h46v-5l4-1 3 2v4h23l1 1v29l-5 2-4 5h-3v10l-5 1-2 6-1 1h-15l-1 12h-17l-1 5-34 1-2-2v-4h-7l-3 1-2-3v-8l-1-2h-5-3l-2-2v-3l-5-2-2-4 1-7h-12v-19h-6v-41l6-4 4-4h2v-9l12-11 8-9h14z" fill="#010407"/>
<path transform="translate(642,1033)" d="m0 0h7l3 5h4l2-5 5 1 1 5h27l2 4 9 2 4 5 5 5 6 4v10l5 1v17l-5 2v14l-1 2-4 1-3 5-2 1h-8v10l-5 2-1 4 5 3 5 5 2 1v8l5 4 7 7v15l-22 1-3-2-2-4-4-2v-8l-7-6-1-2-3-1-1-6-1-5-9-7h-1v30l-3 1-3-1v12l-3 1-15-1v-15l1-2h-6l-1-1v-29l6-3v-8l-6-2v-71l5-2 1-4z" fill="#010306"/>
<path transform="translate(115,1033)" d="m0 0h7l4 5 4 3 1 10 5 2 1 1v14l5 2 1 10 5 2 1 10 6 3v9l5 3v16l5 1 1 1 1 9 5 3v14l2 2 4 1v10l-1 2h-10l-2 5h-4l-7-7-7-8-1-3-3 1-2-3v-14l-4-2-2-6-4 2-3 5h-7l-3-2-1-4h-20l-3 5-4 1-1 11-4 1-3 5-4 2-1 10-4 1h-7l-2 6-5-1-2-4-3-1-2-4v-6l4-4h3l-1-12 2-5 4-1v-12l2-5 4-1v-10l7-1v-11l4-1 1-9v-7l2-2 4-2v-14l2-2 4-2v-8l2-2h4v-11z" fill="#010407"/>
<path transform="translate(1734,1291)" d="m0 0h45l26 26 1 9 5 2 1 7v8l-1 2-6 1v6h-89l1 9 14 14h7l9 10v2h16l2-6h7l18-18h11l4 1 1 6-2 6h-11l1 11-4 1h-12l-5 6h-2l-2 5-1 1h-40l-1-11-6-1h-3l-4-6-5-4-2-3-3-1v-10l-5-1-1-2v-39l6-2v-8l5-4 9-11 9-1 2-4z" fill="#01060B"/>
<path transform="translate(1931,1038)" d="m0 0 3 1 7 8 10 10 2 1v17l6 1 1 11 5 1 1 6v10l5 3 5 5 2 4v18l5 3 1 9 9 7 2 1v17l-29 1-1-1-1-16-8-7-10-10-1-2-33 1v9l-7 6-1 2-3 1-1 16-14 1h-16v-6l6-3v-14l6-5-1-12 3-3 3-1 1-4-1-9 3-4 3-1 1-10 6-1-1-9 2-3 4-2 2-4 4-1v-22l7-1-1-9 2-3 8-1z" fill="#010306"/>
<path transform="translate(1114,1039)" d="m0 0h45l2 6h14l21 21-1 16h-13l-5-2v-4h-6l-4 1-1-7-5-1-3-5h-8l-2-2-1-4h-15l-2 5-3 1h-6l-5 6h-3v11h-6v12l-4 1h-2l1 28 5 3 1 10h8l15 15 1 2 14 1 4-6h9l2-5 5-5 1-2 9-1 2-4 2-1h7l8 7 1 2v7l-6 5-3 4h-8l-1 11-1 1h-9l-3 5-51 1-2-3v-3l-6-2v-9l-10-2-2-2v-3l-5-1-1-10-6-1-5-1v-24l-5 1-1-2v-16l1-1h5v-17l5-2 1-9 6-5 7-8 7-7 8-1z" fill="#010407"/>
<path transform="translate(1422,1057)" d="m0 0 4 1 1 4 4 2 5-1 3 4v3l8-1 10 10v2l5 1v14l1 3 5 1v16l-5 2-1 7v10l-4 1-8-1v12l-11 1-1 5h-28l-9-10-8-8-2-1v-16l-5-1-1-1v-15l3-2h3l-1-22 5-2 3-6h10l2-6h5l3 2 2-6z" fill="#FDFDFD"/>
<path transform="translate(524,1279)" d="m0 0h12l4 5 14 1 6 7 8 7 9 10 4 3-1 75-1 1h-17v-60l-6-1v-17l-5-1-2-4-5-1-2 1-4-4-1-4-5 1h-15l-7 8-3 4h-4v65l-5 1-1 11-1 1h-16l-1-1v-101l1-1h16l3 5 7 1 2-1 2-5h10l1-5z" fill="#010407"/>
<path transform="translate(280,1297)" d="m0 0h32l2 6h8l7 6 2 1 1 12h5v41l-9 1-8 8-2 3h-38l-6-6v-2h-2l-6-8v-6l-5-2-1-4v-24l4-2h3l-1-9 6-5z" fill="#FDFDFD"/>
<path transform="translate(902,1297)" d="m0 0h19l9 10 14 14 3 2v40h-12v12h-53v-11l-5-2-7-6v-28l6-1v-10l5-2 2-5 7-7 8 1 2-5z" fill="#FDFDFD"/>
<path transform="translate(1089,1285)" d="m0 0h17l1 1v11h9l7-8 3-4h26l4 5 3 1h5l7 8 17 17 2 1v69l-8 8-4-1-1-5-6-2v-20l1-32-6-1-1-3v-13l-8-7-11-11-5-2-5 5-3 2h-11l-8 7-1 22-6 1v53l-6 4-2 4-4-2-4-5-2-1z" fill="#010509"/>
<path transform="translate(1345,1304)" d="m0 0h32l20 20v9l6 2v15l-6 2v10l-1 1h-5v12l-16 1-7 8-4 4-11-12h-13l-9-10-5-4v-34l5-2v-9l6-2 2-5 5-4z" fill="#FDFDFD"/>
<path transform="translate(1657,1039)" d="m0 0h17l3 5 5 4 5 6v9l-6 1v17h6v24h-6l2 6 4 2v40h35l1 1v17h-66z" fill="#010305"/>
<path transform="translate(79,1279)" d="m0 0h17l10 1 2 4 8 1 9 9-1 21-2 1h-6l-9-7-1-11h-15l-4 5-4 4 1 7 11 10 1 2 9 2 4 4 15 1 1 11 5 2v29l-4 2-5 5-4 6h-46v-12l-6-1v-23l2-1h8l2 1 1 10 5 3v10l16-1 7-8 5-4 1-6v-4h-10l-4-6h-7l-3-3v-9h-16l-2-3v-3l-5-1v-34l7-7 5-4z" fill="#010408"/>
<path transform="translate(1938,1291)" d="m0 0h36l15 15v13l-8 9-4-2-11-12-9-10-4 2-7 8-4 4 1 3 5 3v10l4-1h16l17 17 5 6v6l4 2 1 2v8l-2 2h-4v10l-4 2h-5l-4 5-5 4-1 2-5 1h-22l-9-10-1-2h-9l-1-2v-21l2-2h8l8 8 2 9 7 6h12l7-6 1-2v-12l-5-4v-7l-1-2-15-1-5-6-7 1-2-4v-7l-6-5v-2l-5-2-1-1v-15l2-2h4v-9l7-8z" fill="#01050A"/>
<path transform="translate(896,1033)" d="m0 0h3l2 6h10l1 1v131l-24 1-1-1v-69l1-8h-5l-2-2v-8l1-2 5-1v-5l-5-1v-23l6-1-1-5 1-6 5-5z" fill="#010509"/>
<path transform="translate(1547,1291)" d="m0 0h8l1 1 1 12 5-3 8-10h21l2 1-1 4-6 5-5 5-3 4h-9v10l-3 2h-3v65l-6 1v11l-1 1h-10l-2-3v-9l-5-1-1-13v-75l6-4z" fill="#01050A"/>
<path transform="translate(1742,1304)" d="m0 0h20l5 6 5 5h3l4 1 9 8v8l-2 2-64-1v-9z" fill="#FDFDFD"/>
<path transform="translate(671,1057)" d="m0 0h7l7 7 4 5 3 2v22l-5 1-2 5-2 1h-6l-4 6-4-2-3-4-3-1v-35l5-3z" fill="#FDFDFD"/>
<path transform="translate(988,1117)" d="m0 0h30v31h-30z" fill="#010810"/>
<path transform="translate(793,1117)" d="m0 0h30v31h-30z" fill="#01070D"/>
<path transform="translate(1787,1117)" d="m0 0h30v31h-29l-1-1z" fill="#01060C"/>
<path transform="translate(1569,1117)" d="m0 0h29v31h-30v-30z" fill="#010810"/>
<path transform="translate(545,1117)" d="m0 0h29v31h-30v-30z" fill="#010810"/>
<path transform="translate(1273,1117)" d="m0 0h29v31h-29l-1-1v-29z" fill="#01080F"/>
<path transform="translate(249,1117)" d="m0 0h29v31h-29l-1-1v-29z" fill="#010810"/>
<path transform="translate(1929,1093)" d="m0 0 5 1 8 8v10l-1 4-10 8h-6l-2-4v-10l2-5 4-1z" fill="#FDFDFD"/>
<path transform="translate(113,1081)" d="m0 0 5 1 1 11 5 1v17l-3 1-14-1-1-3v-11l1-3 5-1v-11z" fill="#FDFDFD"/>
</svg>
